<svg width="56" height="56" viewBox="0 0 56 56" fill="none" xmlns="http://www.w3.org/2000/svg">
<path d="M0 20.2667C0 13.1727 0 9.62567 1.38058 6.91612C2.59498 4.53273 4.53273 2.59498 6.91612 1.38058C9.62567 0 13.1727 0 20.2667 0H35.7333C42.8273 0 46.3743 0 49.0839 1.38058C51.4673 2.59498 53.405 4.53273 54.6194 6.91612C56 9.62567 56 13.1727 56 20.2667V35.7333C56 42.8273 56 46.3743 54.6194 49.0839C53.405 51.4673 51.4673 53.405 49.0839 54.6194C46.3743 56 42.8273 56 35.7333 56H20.2667C13.1727 56 9.62567 56 6.91612 54.6194C4.53273 53.405 2.59498 51.4673 1.38058 49.0839C0 46.3743 0 42.8273 0 35.7333V20.2667Z" fill="#1E252B"/>
<path d="M15.7334 28.8C7.93342 34.5408 6.40002 42.9334 6.40002 49.9334C6.75558 47.8445 8.38669 42.9467 12.0667 40.0667C17.5334 35.7884 27.5333 37.1978 38.4667 29.9334C49.4001 22.6689 50.4667 13.2 49.0667 5.93335C48.094 12.9451 44.7744 16.001 40.2 18.7334C30.2668 24.6667 24.0668 22.6667 15.7334 28.8Z" fill="url(#paint0_linear_50_199)"/>
<path d="M15.7334 28.8C7.93342 34.5408 6.40002 42.9334 6.40002 49.9334C6.75558 47.8445 8.38669 42.9467 12.0667 40.0667C17.5334 35.7884 27.5333 37.1978 38.4667 29.9334C49.4001 22.6689 50.4667 13.2 49.0667 5.93335C48.094 12.9451 44.7744 16.001 40.2 18.7334C30.2668 24.6667 24.0668 22.6667 15.7334 28.8Z" fill="url(#paint1_linear_50_199)"/>
<path d="M6.49329 47.0639C6.9213 40.739 8.97503 33.774 15.7333 28.8C20.0777 25.6025 23.8422 24.6155 27.8582 23.5626C30.2018 22.9482 32.6311 22.3113 35.3112 21.1995C34.3334 22.1333 29.6871 24.3133 26.1825 25.7699C22.6871 27.2227 19.0018 28.7543 15.9334 30.8C9.77698 34.9042 7.27374 42.045 6.49329 47.0639Z" fill="url(#paint2_linear_50_199)"/>
<path d="M6.49329 47.0639C6.9213 40.739 8.97503 33.774 15.7333 28.8C20.0777 25.6025 23.8422 24.6155 27.8582 23.5626C30.2018 22.9482 32.6311 22.3113 35.3112 21.1995C34.3334 22.1333 29.6871 24.3133 26.1825 25.7699C22.6871 27.2227 19.0018 28.7543 15.9334 30.8C9.77698 34.9042 7.27374 42.045 6.49329 47.0639Z" fill="url(#paint3_linear_50_199)"/>
<path d="M44.4355 24.7418C43.6689 25.4927 42.8141 26.1649 41.8668 26.7333C37.6001 29.2934 33.065 30.1189 28.6522 30.9223C25.1357 31.5624 21.6969 32.1884 18.5334 33.6667C11.4006 36.9998 7.00069 43.9324 6.40023 49.9322C6.40018 49.9324 6.40014 49.9327 6.4001 49.9329C6.40007 49.9318 6.40005 49.9308 6.40002 49.9297C6.40006 49.4717 6.40666 49.0078 6.42115 48.539C6.4575 47.7953 6.53438 46.9713 6.66161 46.0926C7.60328 41.1584 10.1644 34.646 15.9334 30.8C18.3756 29.1719 21.2084 27.8693 24.0254 26.673C26.5027 25.8597 28.7354 25.3535 30.8626 24.8712C34.2111 24.1121 37.2983 23.4122 40.6668 21.6667C47.7349 18.0041 49.5868 10.4776 49.089 6.05029C50.1458 11.6601 49.7186 18.5598 44.4355 24.7418Z" fill="url(#paint4_linear_50_199)"/>
<path d="M44.4353 24.7419C43.6687 25.4928 42.814 26.165 41.8667 26.7334C37.6 29.2934 33.0649 30.119 28.6521 30.9223C25.1357 31.5624 21.6968 32.1884 18.5334 33.6667C14.4313 35.5836 11.2331 38.691 9.1416 42.1268C10.987 39.5337 13.7983 36.637 17.2667 35.5334C20.6512 34.4565 23.8795 34.3452 27.2333 34.2296C28.1946 34.1965 29.1662 34.163 30.1547 34.1063C32.8189 33.1365 35.6109 31.8308 38.4666 29.9334C40.9281 28.2979 42.8895 26.5506 44.4353 24.7419Z" fill="url(#paint5_linear_50_199)"/>
<path d="M44.4353 24.7419C43.6687 25.4928 42.814 26.165 41.8667 26.7334C37.6 29.2934 33.0649 30.119 28.6521 30.9223C25.1357 31.5624 21.6968 32.1884 18.5334 33.6667C14.4313 35.5836 11.2331 38.691 9.1416 42.1268C10.987 39.5337 13.7983 36.637 17.2667 35.5334C20.6512 34.4565 23.8795 34.3452 27.2333 34.2296C28.1946 34.1965 29.1662 34.163 30.1547 34.1063C32.8189 33.1365 35.6109 31.8308 38.4666 29.9334C40.9281 28.2979 42.8895 26.5506 44.4353 24.7419Z" fill="url(#paint6_linear_50_199)"/>
<path d="M49.0889 6.05029C49.0816 6.01125 49.0741 5.97227 49.0666 5.93335C48.0939 12.9451 44.7744 16.001 40.2 18.7334C38.4671 19.7684 36.8479 20.5621 35.3111 21.1996C34.3331 22.1335 29.687 24.3134 26.1825 25.7699L26.1819 25.7701C25.4687 26.0666 24.7476 26.3663 24.0254 26.673C26.5027 25.8597 28.7353 25.3535 30.8625 24.8712C34.2111 24.1121 37.2982 23.4122 40.6667 21.6667C47.7349 18.0041 49.5867 10.4776 49.0889 6.05029Z" fill="url(#paint7_linear_50_199)"/>
<path d="M49.0889 6.05029C49.0816 6.01125 49.0741 5.97227 49.0666 5.93335C48.0939 12.9451 44.7744 16.001 40.2 18.7334C38.4671 19.7684 36.8479 20.5621 35.3111 21.1996C34.3331 22.1335 29.687 24.3134 26.1825 25.7699L26.1819 25.7701C25.4687 26.0666 24.7476 26.3663 24.0254 26.673C26.5027 25.8597 28.7353 25.3535 30.8625 24.8712C34.2111 24.1121 37.2982 23.4122 40.6667 21.6667C47.7349 18.0041 49.5867 10.4776 49.0889 6.05029Z" fill="url(#paint8_linear_50_199)"/>
<defs>
<linearGradient id="paint0_linear_50_199" x1="30.8" y1="32.4" x2="7.73336" y2="48.9333" gradientUnits="userSpaceOnUse">
<stop stop-color="#FE5004"/>
<stop offset="0.602538" stop-color="#FFB915"/>
<stop offset="1" stop-color="#FFFC41"/>
</linearGradient>
<linearGradient id="paint1_linear_50_199" x1="21.6667" y1="33.8" x2="21.8" y2="36.2" gradientUnits="userSpaceOnUse">
<stop stop-color="#FD3E00"/>
<stop offset="1" stop-color="#FD4400" stop-opacity="0"/>
</linearGradient>
<linearGradient id="paint2_linear_50_199" x1="35.3333" y1="20" x2="2.79999" y2="48.9333" gradientUnits="userSpaceOnUse">
<stop stop-color="#005FC6"/>
<stop offset="0.279756" stop-color="#23A4DF"/>
<stop offset="0.465158" stop-color="#3AC2B7"/>
<stop offset="0.640642" stop-color="#60EC7A"/>
<stop offset="0.818668" stop-color="#CFFDBD"/>
<stop offset="1" stop-color="#D0FCB6"/>
</linearGradient>
<linearGradient id="paint3_linear_50_199" x1="28.7333" y1="25.5333" x2="25.9333" y2="23" gradientUnits="userSpaceOnUse">
<stop stop-color="#0061CB"/>
<stop offset="1" stop-color="#067EEA" stop-opacity="0"/>
</linearGradient>
<linearGradient id="paint4_linear_50_199" x1="49.2" y1="6.00002" x2="6.40003" y2="49.8667" gradientUnits="userSpaceOnUse">
<stop stop-color="#8E55F1"/>
<stop offset="0.140795" stop-color="#8B48DF"/>
<stop offset="0.274905" stop-color="#E04DD9"/>
<stop offset="0.492309" stop-color="#F496C8"/>
<stop offset="0.633104" stop-color="#FAD2BA"/>
<stop offset="0.856964" stop-color="#FEF7E5"/>
<stop offset="1" stop-color="#FFF5BF"/>
</linearGradient>
<linearGradient id="paint5_linear_50_199" x1="44.9999" y1="24.3334" x2="10.0666" y2="40.1334" gradientUnits="userSpaceOnUse">
<stop stop-color="#F41A73"/>
<stop offset="0.399909" stop-color="#FC50A3"/>
<stop offset="0.584511" stop-color="#FE9485"/>
<stop offset="0.703104" stop-color="#FFAF88"/>
<stop offset="1" stop-color="#FFC385"/>
</linearGradient>
<linearGradient id="paint6_linear_50_199" x1="32.3999" y1="29.2" x2="32.4666" y2="32.4" gradientUnits="userSpaceOnUse">
<stop stop-color="#9B0008"/>
<stop offset="1" stop-color="#EA115A" stop-opacity="0"/>
</linearGradient>
<linearGradient id="paint7_linear_50_199" x1="49.2" y1="9.60002" x2="17.6666" y2="30.2" gradientUnits="userSpaceOnUse">
<stop stop-color="#231283"/>
<stop offset="0.362865" stop-color="#7053C6"/>
<stop offset="0.466353" stop-color="#7272DB"/>
<stop offset="0.634311" stop-color="#399EE9"/>
<stop offset="1" stop-color="#00CFFF"/>
</linearGradient>
<linearGradient id="paint8_linear_50_199" x1="41.3333" y1="20" x2="42.7333" y2="21.8" gradientUnits="userSpaceOnUse">
<stop stop-color="#3F259D" stop-opacity="0"/>
<stop offset="1" stop-color="#412DAA"/>
</linearGradient>
</defs>
</svg>
